<?xml version="1.0" encoding="utf-8"?>
<!-- Generator: Adobe Illustrator 18.1.1, SVG Export Plug-In . SVG Version: 6.00 Build 0)  -->
<svg version="1.1" id="Layer_1" xmlns="http://www.w3.org/2000/svg" xmlns:xlink="http://www.w3.org/1999/xlink" x="0px" y="0px"
	 width="1940.798px" height="495.853px" viewBox="0 0 1940.798 495.853" enable-background="new 0 0 1940.798 495.853"
	 xml:space="preserve" fill="#fff"> 
<g>
	<path fill-rule="evenodd" clip-rule="evenodd" fill="#fff" d="M561.789,177.227v183.6c16.526,0,32.346-3.325,45.861-14.427
		l20.273-20.833c37.533-54.227-32.78-184.154,67.234-239.677c61.357-34.063,131.854,5.209,148.935,61.141
		c6.378,20.876,5.433,27.879,5.427,54.858c-0.004,19.183,0.002,38.365,0,57.543c-0.002,26.178-2.35,34.859,5.765,54.525
		c10.487,25.411,34.525,46.869,70.962,46.869c0-37.323-3.429-178.799,3.164-205.099c3.075-12.264,2.391-9.695,7.512-19.89
		c3.607-7.177,4.026-9.918,8.393-16.271c43.849-63.815,140.924-59.852,176.934,6.89l6.827,15.099
		c20.742,51.334-4.268,124.408,13.96,172.378c9.62,25.332,35.42,46.893,70.939,46.893v-180.86c0-36.5-7.35-55.926-19.445-81.942
		c-2.453-5.272-4.646-9.444-7.915-14.009c-17.855-24.912-15.874-23.953-40.441-44.509c-55.436-46.39-145.598-50.666-205.385-14.895
		c-10.259,6.139-18.593,11.643-27.449,19.137c-9.605,8.131-15.464,17.176-25.458,23.867c-7.025-4.706-9.263-9.019-16.866-16.017
		c-13.727-12.636-16.195-15.064-32.58-24.966C776.125-11.03,687.388-6.86,636.362,35.316c-8.888,7.343-14.8,12.438-23.802,20.043
		C583.911,79.566,561.789,133.061,561.789,177.227z"/>
	<path fill-rule="evenodd" clip-rule="evenodd" fill="#fff" d="M1238.641,166.266c0,21.122-0.936,44.344,5.085,63.418
		l12.427,31.419c12.396,22.287,20.829,32.521,39.308,51.125c16.919,17.033,35.622,25.23,55.492,34.934
		c36.396,17.768,97.551,13.665,142.533,13.665c0-15.225-3.494-25.828-7.789-36.054c-18.777-44.673-78.785-31.377-108.951-47.247
		c-27.228-14.32-30.852-18.568-46.787-43.643c-63.167-99.384,80.003-228.368,170.959-121.635
		c21.375,25.083,25.16,56.961,25.561,89.531c1.171,94.878-16.479,139.326,76.619,159.047c0-42.932,0-85.862,0-128.794
		c0-84.134-0.086-142.083-75.861-198.168c-0.463-0.344-1.115-0.819-1.592-1.15c-72.83-50.618-174.326-40.07-236.637,22.241
		C1265.471,78.493,1238.641,120.841,1238.641,166.266z"/>
	<path fill-rule="evenodd" clip-rule="evenodd" fill="#fff" d="M249.399,169.005c0,45.761,4.258,81.105,33.896,116.821
		c75.037,90.413,132.779,75,253.833,75c0-90.634-99.429-70.387-125.025-75.016c-23.456-4.249-44.375-16.801-59.325-33.846
		c-4.288-4.889-15.5-23.367-18.023-28.563c-11.316-23.298-12.229-60.35-0.047-84.177l7.795-14.129
		c15.122-25.739,41.086-45.456,71.082-49.492c28.328-3.811,60.302,1.138,84.077-9.092c26.329-11.328,39.467-34.838,39.467-64.664
		c-67.979,0-136.575-8.552-188.196,17.325c-19.493,9.771-32.629,21.078-47.191,35.017c-0.407,0.391-0.99,0.952-1.391,1.352
		C271.187,84.667,249.399,126.434,249.399,169.005z"/>
	<path fill-rule="evenodd" clip-rule="evenodd" fill="#fff" d="M189.113,360.826h101.388c0-25.687-6.899-41.155-25.415-56.793
		c-39.19-33.098-80.152-4.342-122.657-25.32c-38.986-19.241-39.125-30.474-51.064-50.324
		C54.861,167.692,116.011,39.452,35.387,7.596C-10.024-10.349,0.562,7.317,2.287,21.327C11.575,96.74-14.337,192.022,20.99,263.142
		c2.659,5.354,3.835,8.033,6.797,12.384l7.96,11.22c7.314,10.58,27.628,30.922,38.225,38.507
		C103.746,346.557,137.779,360.826,189.113,360.826z"/>
	<path fill-rule="evenodd" clip-rule="evenodd" fill="#fff" d="M1839.407,0.001h101.391c0,25.684-6.901,41.155-25.416,56.791
		c-39.193,33.098-80.156,4.343-122.658,25.318c-38.986,19.243-39.128,30.476-51.063,50.328
		c-36.506,60.694,24.644,188.939-55.979,220.795c-45.411,17.94-34.827,0.275-33.103-13.735
		c9.291-75.413-16.623-170.695,18.703-241.813c2.66-5.353,3.836-8.033,6.799-12.384l7.962-11.224
		c7.31-10.576,27.624-30.916,38.224-38.501C1754.04,14.269,1788.073,0.001,1839.407,0.001z"/>
	<path fill-rule="evenodd" clip-rule="evenodd" fill="#fff" d="M346.859,199.215c54.038-84.275,109.832-21.654,154.506-28.678
		C467.811,169.952,476.394,244.278,346.859,199.215L346.859,199.215z M346.859,202.078c34.089-7.143,77.05-31.605,108.433-20.9
		C429.226,162.222,389.435,167.321,346.859,202.078z"/>
	<path fill-rule="evenodd" clip-rule="evenodd" fill="#fff" d="M1741.598,199.215c54.038-84.275,109.831-21.654,154.504-28.678
		C1862.548,169.952,1871.13,244.278,1741.598,199.215L1741.598,199.215z M1741.598,202.078c34.085-7.143,77.048-31.605,108.433-20.9
		C1823.962,162.222,1784.171,167.321,1741.598,202.078z"/>
	<rect x="1.982" y="404.779" fill-rule="evenodd" clip-rule="evenodd" fill="#fff" width="1936.832" height="16.442"/>
	<path fill-rule="evenodd" clip-rule="evenodd" d="M8.219,495.852v-34.238h4.541v30.222h16.832v4.017H8.219L8.219,495.852z
		 M37.317,495.852l13.134-34.238h4.979l13.94,34.238h-5.156l-3.961-10.379H45.835l-3.712,10.379H37.317L37.317,495.852z
		 M47.168,481.791h11.666l-3.57-9.49c-1.077-2.885-1.889-5.267-2.455-7.149c-0.469,2.232-1.098,4.426-1.888,6.591L47.168,481.791
		L47.168,481.791z M78.84,495.852v-34.238h12.847c2.613,0,4.71,0.347,6.296,1.038c1.578,0.691,2.813,1.761,3.705,3.203
		c0.9,1.435,1.346,2.939,1.346,4.516c0,1.462-0.397,2.837-1.187,4.13c-0.788,1.293-1.984,2.335-3.586,3.133
		c2.071,0.604,3.665,1.643,4.773,3.108c1.116,1.458,1.674,3.186,1.674,5.176c0,1.611-0.342,3.105-1.02,4.48
		c-0.678,1.38-1.515,2.441-2.509,3.191c-0.998,0.739-2.248,1.305-3.747,1.69c-1.505,0.377-3.347,0.573-5.53,0.573H78.84
		L78.84,495.852z M83.383,476.006h7.404c2.008,0,3.451-0.133,4.319-0.397c1.155-0.342,2.024-0.916,2.606-1.714
		c0.581-0.798,0.876-1.796,0.876-2.998c0-1.14-0.269-2.142-0.819-3.003c-0.543-0.868-1.325-1.466-2.336-1.784
		c-1.012-0.322-2.749-0.479-5.203-0.479h-6.846V476.006L83.383,476.006z M83.383,491.836h8.528c1.466,0,2.494-0.059,3.091-0.169
		c1.037-0.185,1.912-0.495,2.613-0.931c0.704-0.44,1.277-1.077,1.731-1.914c0.454-0.837,0.678-1.8,0.678-2.897
		c0-1.281-0.328-2.39-0.99-3.337c-0.653-0.947-1.563-1.608-2.726-1.992c-1.156-0.382-2.83-0.574-5.005-0.574h-7.921V491.836
		L83.383,491.836z M115.607,479.185c0-5.671,1.529-10.119,4.582-13.33c3.052-3.211,6.988-4.814,11.818-4.814
		c3.164,0,6.009,0.755,8.551,2.264c2.535,1.505,4.471,3.607,5.801,6.311c1.333,2.692,2.001,5.754,2.001,9.173
		c0,3.466-0.7,6.57-2.104,9.306c-1.401,2.743-3.386,4.814-5.952,6.218c-2.574,1.41-5.347,2.114-8.32,2.114
		c-3.229,0-6.105-0.786-8.648-2.339c-2.533-1.552-4.462-3.674-5.767-6.366C116.259,485.037,115.607,482.192,115.607,479.185
		L115.607,479.185z M120.293,479.269c0,4.118,1.106,7.364,3.323,9.73c2.214,2.365,4.995,3.553,8.341,3.553
		c3.411,0,6.209-1.195,8.416-3.584c2.201-2.394,3.301-5.789,3.301-10.186c0-2.783-0.472-5.212-1.411-7.286
		c-0.941-2.071-2.321-3.679-4.129-4.818c-1.817-1.14-3.849-1.714-6.105-1.714c-3.203,0-5.96,1.101-8.271,3.298
		C121.448,470.461,120.293,474.128,120.293,479.269L120.293,479.269z M160.347,495.852v-34.238h15.176
		c3.05,0,5.371,0.31,6.956,0.928c1.586,0.609,2.854,1.694,3.802,3.246c0.947,1.557,1.417,3.278,1.417,5.156
		c0,2.433-0.788,4.48-2.358,6.147c-1.57,1.666-3.993,2.72-7.276,3.172c1.204,0.573,2.112,1.147,2.733,1.705
		c1.323,1.211,2.574,2.731,3.746,4.56l5.92,9.325h-5.657l-4.527-7.125c-1.313-2.063-2.405-3.635-3.258-4.728
		c-0.861-1.093-1.625-1.848-2.303-2.287c-0.67-0.429-1.362-0.732-2.063-0.908c-0.511-0.107-1.348-0.161-2.52-0.161h-5.244v15.209
		H160.347L160.347,495.852z M164.891,476.726h9.723c2.073,0,3.682-0.216,4.846-0.648c1.163-0.421,2.047-1.108,2.645-2.056
		c0.607-0.94,0.91-1.961,0.91-3.069c0-1.615-0.581-2.955-1.753-3.997c-1.171-1.045-3.022-1.56-5.547-1.56h-10.823V476.726
		L164.891,476.726z M197.097,495.852l13.134-34.238h4.981l13.938,34.238h-5.156l-3.959-10.379h-14.417l-3.714,10.379H197.097
		L197.097,495.852z M206.947,481.791h11.666l-3.568-9.49c-1.077-2.885-1.888-5.267-2.454-7.149
		c-0.472,2.232-1.101,4.426-1.891,6.591L206.947,481.791L206.947,481.791z M243.968,495.852v-30.222h-11.285v-4.017h27.111v4.017
		h-11.285v30.222H243.968L243.968,495.852z M269.154,479.185c0-5.671,1.531-10.119,4.582-13.33
		c3.053-3.211,6.989-4.814,11.819-4.814c3.164,0,6.009,0.755,8.55,2.264c2.535,1.505,4.472,3.607,5.802,6.311
		c1.332,2.692,2,5.754,2,9.173c0,3.466-0.702,6.57-2.104,9.306c-1.401,2.743-3.386,4.814-5.952,6.218
		c-2.574,1.41-5.349,2.114-8.319,2.114c-3.228,0-6.105-0.786-8.648-2.339c-2.533-1.552-4.462-3.674-5.769-6.366
		C269.808,485.037,269.154,482.192,269.154,479.185L269.154,479.185z M273.84,479.269c0,4.118,1.108,7.364,3.323,9.73
		c2.216,2.365,4.997,3.553,8.343,3.553c3.411,0,6.21-1.195,8.416-3.584c2.201-2.394,3.299-5.789,3.299-10.186
		c0-2.783-0.47-5.212-1.411-7.286c-0.94-2.071-2.319-3.679-4.128-4.818c-1.816-1.14-3.848-1.714-6.104-1.714
		c-3.203,0-5.96,1.101-8.271,3.298C274.995,470.461,273.84,474.128,273.84,479.269L273.84,479.269z M282.064,459.512l3.061-6.551
		h5.546l-5.115,6.551H282.064L282.064,459.512z M313.897,495.852v-34.238h15.173c3.052,0,5.372,0.31,6.956,0.928
		c1.588,0.609,2.853,1.694,3.802,3.246c0.949,1.557,1.419,3.278,1.419,5.156c0,2.433-0.788,4.48-2.358,6.147
		c-1.57,1.666-3.993,2.72-7.276,3.172c1.203,0.573,2.112,1.147,2.733,1.705c1.322,1.211,2.574,2.731,3.745,4.56l5.921,9.325h-5.657
		l-4.527-7.125c-1.313-2.063-2.405-3.635-3.258-4.728c-0.861-1.093-1.627-1.848-2.305-2.287c-0.668-0.429-1.361-0.732-2.063-0.908
		c-0.509-0.107-1.346-0.161-2.517-0.161h-5.245v15.209H313.897L313.897,495.852z M318.44,476.726h9.723
		c2.073,0,3.683-0.216,4.846-0.648c1.163-0.421,2.047-1.108,2.645-2.056c0.605-0.94,0.91-1.961,0.91-3.069
		c0-1.615-0.581-2.955-1.753-3.997c-1.173-1.045-3.022-1.56-5.549-1.56H318.44V476.726L318.44,476.726z M355.165,495.852v-34.238
		h4.541v34.238H355.165L355.165,495.852z M372.367,479.185c0-5.671,1.529-10.119,4.583-13.33c3.052-3.211,6.987-4.814,11.817-4.814
		c3.164,0,6.009,0.755,8.552,2.264c2.535,1.505,4.47,3.607,5.801,6.311c1.332,2.692,2,5.754,2,9.173c0,3.466-0.701,6.57-2.104,9.306
		c-1.401,2.743-3.385,4.814-5.952,6.218c-2.574,1.41-5.349,2.114-8.32,2.114c-3.228,0-6.105-0.786-8.648-2.339
		c-2.533-1.552-4.462-3.674-5.768-6.366C373.019,485.037,372.367,482.192,372.367,479.185L372.367,479.185z M377.051,479.269
		c0,4.118,1.108,7.364,3.323,9.73c2.217,2.365,4.997,3.553,8.343,3.553c3.412,0,6.209-1.195,8.416-3.584
		c2.201-2.394,3.301-5.789,3.301-10.186c0-2.783-0.471-5.212-1.413-7.286c-0.939-2.071-2.319-3.679-4.128-4.818
		c-1.816-1.14-3.848-1.714-6.104-1.714c-3.203,0-5.96,1.101-8.271,3.298C378.207,470.461,377.051,474.128,377.051,479.269
		L377.051,479.269z M443.584,495.852v-34.238h11.794c2.661,0,4.695,0.157,6.096,0.487c1.961,0.452,3.635,1.273,5.021,2.453
		c1.81,1.532,3.158,3.474,4.05,5.848c0.9,2.377,1.346,5.093,1.346,8.147c0,2.598-0.303,4.901-0.908,6.909
		c-0.608,2.008-1.388,3.675-2.335,4.987c-0.957,1.316-1.993,2.35-3.125,3.104c-1.124,0.755-2.488,1.328-4.082,1.722
		c-1.601,0.385-3.434,0.581-5.506,0.581H443.584L443.584,495.852z M448.128,491.836h7.298c2.256,0,4.026-0.212,5.308-0.633
		c1.283-0.42,2.303-1.01,3.069-1.776c1.067-1.076,1.904-2.526,2.501-4.342c0.599-1.816,0.902-4.017,0.902-6.607
		c0-3.588-0.592-6.343-1.763-8.272c-1.171-1.93-2.598-3.219-4.28-3.875c-1.21-0.468-3.164-0.7-5.857-0.7h-7.178V491.836
		L448.128,491.836z M484.278,495.852v-34.238h24.722v4.017H488.82v10.521h18.886v4.017H488.82v11.668h20.99v4.017H484.278
		L484.278,495.852z M548.808,495.852v-34.238h24.722v4.017h-20.179v10.521h18.888v4.017h-18.888v11.668h20.992v4.017H548.808
		L548.808,495.852z M585.192,484.852l4.256-0.381c0.198,1.721,0.668,3.128,1.409,4.236c0.743,1.101,1.888,1.996,3.443,2.681
		c1.554,0.676,3.307,1.022,5.253,1.022c1.729,0,3.25-0.26,4.574-0.778c1.323-0.515,2.303-1.225,2.95-2.122
		c0.644-0.904,0.971-1.887,0.971-2.936c0-1.065-0.31-2.001-0.932-2.807c-0.621-0.797-1.648-1.466-3.085-2.016
		c-0.915-0.35-2.949-0.908-6.095-1.666c-3.148-0.755-5.349-1.462-6.608-2.135c-1.633-0.86-2.845-1.929-3.641-3.194
		c-0.806-1.266-1.203-2.696-1.203-4.265c0-1.736,0.493-3.355,1.474-4.854c0.98-1.505,2.407-2.645,4.295-3.427
		c1.881-0.782,3.977-1.171,6.28-1.171c2.533,0,4.773,0.408,6.71,1.226c1.936,0.814,3.427,2.017,4.47,3.612
		c1.044,1.584,1.602,3.388,1.68,5.396l-4.351,0.334c-0.232-2.161-1.019-3.792-2.366-4.893c-1.348-1.108-3.338-1.658-5.97-1.658
		c-2.741,0-4.741,0.503-5.993,1.505c-1.252,1.006-1.88,2.217-1.88,3.636c0,1.226,0.446,2.239,1.332,3.033
		c0.875,0.79,3.146,1.611,6.829,2.44c3.682,0.838,6.208,1.561,7.579,2.186c1.984,0.916,3.458,2.071,4.407,3.478
		c0.947,1.407,1.419,3.026,1.419,4.857c0,1.824-0.519,3.529-1.563,5.141c-1.045,1.611-2.535,2.861-4.488,3.749
		c-1.953,0.897-4.145,1.345-6.589,1.345c-3.093,0-5.683-0.456-7.771-1.36c-2.095-0.895-3.73-2.252-4.917-4.071
		C585.878,489.187,585.255,487.14,585.192,484.852L585.192,484.852z M633.337,495.852v-30.222h-11.285v-4.017h27.111v4.017H637.88
		v30.222H633.337L633.337,495.852z M682.336,461.614h4.543v19.772c0,3.442-0.391,6.174-1.165,8.201
		c-0.78,2.013-2.183,3.663-4.207,4.929c-2.032,1.27-4.687,1.91-7.984,1.91c-3.197,0-5.818-0.551-7.852-1.658
		c-2.039-1.108-3.49-2.704-4.358-4.799c-0.869-2.095-1.307-4.956-1.307-8.583v-19.772h4.541v19.765c0,2.975,0.281,5.172,0.831,6.574
		c0.55,1.407,1.49,2.5,2.835,3.259c1.34,0.766,2.981,1.147,4.917,1.147c3.317,0,5.683-0.759,7.094-2.26
		c1.411-1.518,2.112-4.418,2.112-8.721V461.614L682.336,461.614z M700.508,495.852v-34.238h11.796c2.661,0,4.692,0.157,6.095,0.487
		c1.961,0.452,3.635,1.273,5.021,2.453c1.81,1.532,3.156,3.474,4.048,5.848c0.902,2.377,1.348,5.093,1.348,8.147
		c0,2.598-0.304,4.901-0.91,6.909c-0.605,2.008-1.385,3.675-2.335,4.987c-0.957,1.316-1.992,2.35-3.124,3.104
		c-1.124,0.755-2.486,1.328-4.08,1.722c-1.602,0.385-3.435,0.581-5.508,0.581H700.508L700.508,495.852z M705.051,491.836h7.3
		c2.256,0,4.024-0.212,5.307-0.633c1.283-0.42,2.303-1.01,3.067-1.776c1.069-1.076,1.906-2.526,2.503-4.342
		c0.598-1.816,0.9-4.017,0.9-6.607c0-3.588-0.589-6.343-1.76-8.272c-1.173-1.93-2.598-3.219-4.28-3.875
		c-1.212-0.468-3.164-0.7-5.858-0.7h-7.18V491.836L705.051,491.836z M739.719,479.185c0-5.671,1.531-10.119,4.583-13.33
		c3.054-3.211,6.99-4.814,11.819-4.814c3.164,0,6.009,0.755,8.55,2.264c2.535,1.505,4.47,3.607,5.803,6.311
		c1.33,2.692,1.999,5.754,1.999,9.173c0,3.466-0.7,6.57-2.103,9.306c-1.401,2.743-3.388,4.814-5.952,6.218
		c-2.576,1.41-5.349,2.114-8.322,2.114c-3.227,0-6.104-0.786-8.646-2.339c-2.535-1.552-4.462-3.674-5.769-6.366
		C740.374,485.037,739.719,482.192,739.719,479.185L739.719,479.185z M744.406,479.269c0,4.118,1.108,7.364,3.323,9.73
		c2.217,2.365,4.997,3.553,8.344,3.553c3.411,0,6.207-1.195,8.416-3.584c2.201-2.394,3.299-5.789,3.299-10.186
		c0-2.783-0.472-5.212-1.411-7.286c-0.939-2.071-2.319-3.679-4.128-4.818c-1.815-1.14-3.85-1.714-6.103-1.714
		c-3.203,0-5.962,1.101-8.273,3.298C745.562,470.461,744.406,474.128,744.406,479.269L744.406,479.269z M782.884,484.852
		l4.256-0.381c0.199,1.721,0.668,3.128,1.411,4.236c0.741,1.101,1.888,1.996,3.442,2.681c1.552,0.676,3.307,1.022,5.25,1.022
		c1.731,0,3.252-0.26,4.575-0.778c1.324-0.515,2.305-1.225,2.949-2.122c0.646-0.904,0.973-1.887,0.973-2.936
		c0-1.065-0.31-2.001-0.933-2.807c-0.621-0.797-1.649-1.466-3.085-2.016c-0.916-0.35-2.948-0.908-6.096-1.666
		c-3.148-0.755-5.347-1.462-6.607-2.135c-1.635-0.86-2.845-1.929-3.641-3.194c-0.806-1.266-1.205-2.696-1.205-4.265
		c0-1.736,0.496-3.355,1.474-4.854c0.98-1.505,2.407-2.645,4.297-3.427c1.878-0.782,3.975-1.171,6.278-1.171
		c2.535,0,4.773,0.408,6.711,1.226c1.938,0.814,3.427,2.017,4.47,3.612c1.045,1.584,1.602,3.388,1.682,5.396l-4.351,0.334
		c-0.232-2.161-1.02-3.792-2.368-4.893c-1.346-1.108-3.339-1.658-5.97-1.658c-2.741,0-4.742,0.503-5.991,1.505
		c-1.252,1.006-1.883,2.217-1.883,3.636c0,1.226,0.446,2.239,1.333,3.033c0.877,0.79,3.148,1.611,6.828,2.44
		c3.683,0.838,6.209,1.561,7.581,2.186c1.983,0.916,3.457,2.071,4.406,3.478c0.949,1.407,1.418,3.026,1.418,4.857
		c0,1.824-0.518,3.529-1.562,5.141c-1.043,1.611-2.533,2.861-4.486,3.749c-1.953,0.897-4.144,1.345-6.59,1.345
		c-3.093,0-5.683-0.456-7.771-1.36c-2.095-0.895-3.728-2.252-4.917-4.071C783.57,489.187,782.949,487.14,782.884,484.852
		L782.884,484.852z M848.993,495.852v-34.238h24.722v4.017h-20.179v10.521h18.888v4.017h-18.888v11.668h20.992v4.017H848.993
		L848.993,495.852z M913.429,495.852v-34.238h12.926c2.272,0,4.009,0.11,5.213,0.326c1.682,0.279,3.091,0.814,4.23,1.596
		c1.14,0.79,2.057,1.887,2.749,3.298c0.693,1.41,1.038,2.963,1.038,4.661c0,2.899-0.926,5.364-2.783,7.372
		c-1.849,2.017-5.203,3.022-10.049,3.022h-8.782v13.963H913.429L913.429,495.852z M917.972,477.873h8.847
		c2.932,0,5.003-0.542,6.239-1.635c1.228-1.093,1.841-2.621,1.841-4.607c0-1.426-0.36-2.652-1.083-3.674
		c-0.727-1.022-1.682-1.698-2.863-2.024c-0.765-0.2-2.173-0.303-4.223-0.303h-8.758V477.873L917.972,477.873z M951.486,495.852
		v-34.238h15.176c3.05,0,5.368,0.31,6.956,0.928c1.588,0.609,2.853,1.694,3.8,3.246c0.947,1.557,1.419,3.278,1.419,5.156
		c0,2.433-0.786,4.48-2.358,6.147c-1.571,1.666-3.992,2.72-7.277,3.172c1.202,0.573,2.113,1.147,2.734,1.705
		c1.32,1.211,2.574,2.731,3.746,4.56l5.922,9.325h-5.658l-4.527-7.125c-1.313-2.063-2.406-3.635-3.259-4.728
		c-0.86-1.093-1.627-1.848-2.307-2.287c-0.668-0.429-1.36-0.732-2.06-0.908c-0.511-0.107-1.348-0.161-2.519-0.161h-5.245v15.209
		H951.486L951.486,495.852z M956.029,476.726h9.721c2.075,0,3.687-0.216,4.85-0.648c1.164-0.421,2.044-1.108,2.641-2.056
		c0.605-0.94,0.912-1.961,0.912-3.069c0-1.615-0.582-2.955-1.752-3.997c-1.172-1.045-3.023-1.56-5.55-1.56h-10.821V476.726
		L956.029,476.726z M990.603,479.185c0-5.671,1.529-10.119,4.582-13.33c3.055-3.211,6.988-4.814,11.818-4.814
		c3.163,0,6.008,0.755,8.551,2.264c2.535,1.505,4.469,3.607,5.801,6.311c1.332,2.692,2,5.754,2,9.173
		c0,3.466-0.699,6.57-2.102,9.306c-1.403,2.743-3.389,4.814-5.954,6.218c-2.574,1.41-5.349,2.114-8.319,2.114
		c-3.227,0-6.104-0.786-8.646-2.339c-2.535-1.552-4.465-3.674-5.77-6.366C991.255,485.037,990.603,482.192,990.603,479.185
		L990.603,479.185z M995.287,479.269c0,4.118,1.108,7.364,3.325,9.73c2.213,2.365,4.994,3.553,8.343,3.553
		c3.411,0,6.206-1.195,8.415-3.584c2.2-2.394,3.301-5.789,3.301-10.186c0-2.783-0.472-5.212-1.411-7.286
		c-0.94-2.071-2.319-3.679-4.13-4.818c-1.816-1.14-3.848-1.714-6.103-1.714c-3.203,0-5.962,1.101-8.273,3.298
		C996.443,470.461,995.287,474.128,995.287,479.269L995.287,479.269z M1032.956,486.13l4.06-0.558
		c0.114,2.617,0.601,4.413,1.47,5.384c0.869,0.967,2.079,1.454,3.615,1.454c1.133,0,2.115-0.268,2.933-0.786
		c0.821-0.522,1.396-1.234,1.706-2.122c0.314-0.897,0.463-2.33,0.463-4.292v-23.596h4.543v23.329c0,2.86-0.342,5.073-1.037,6.649
		c-0.691,1.572-1.784,2.767-3.289,3.596c-1.498,0.821-3.258,1.238-5.278,1.238c-3.003,0-5.298-0.865-6.89-2.594
		C1033.655,492.103,1032.89,489.541,1032.956,486.13L1032.956,486.13z M1065.32,495.852v-34.238h24.721v4.017h-20.178v10.521h18.889
		v4.017h-18.889v11.668h20.99v4.017H1065.32L1065.32,495.852z M1111.886,495.852v-30.222h-11.283v-4.017h27.109v4.017h-11.283
		v30.222H1111.886L1111.886,495.852z M1136.213,479.185c0-5.671,1.532-10.119,4.583-13.33c3.053-3.211,6.99-4.814,11.816-4.814
		c3.168,0,6.014,0.755,8.553,2.264c2.534,1.505,4.472,3.607,5.805,6.311c1.328,2.692,1.996,5.754,1.996,9.173
		c0,3.466-0.699,6.57-2.104,9.306c-1.402,2.743-3.387,4.814-5.949,6.218c-2.578,1.41-5.349,2.114-8.324,2.114
		c-3.227,0-6.104-0.786-8.646-2.339c-2.535-1.552-4.46-3.674-5.769-6.366C1136.869,485.037,1136.213,482.192,1136.213,479.185
		L1136.213,479.185z M1140.901,479.269c0,4.118,1.108,7.364,3.32,9.73c2.217,2.365,5,3.553,8.344,3.553
		c3.412,0,6.209-1.195,8.418-3.584c2.197-2.394,3.297-5.789,3.297-10.186c0-2.783-0.471-5.212-1.41-7.286
		c-0.94-2.071-2.318-3.679-4.127-4.818c-1.815-1.14-3.852-1.714-6.104-1.714c-3.206,0-5.961,1.101-8.271,3.298
		C1142.057,470.461,1140.901,474.128,1140.901,479.269L1140.901,479.269z M1179.38,484.852l4.256-0.381
		c0.197,1.721,0.668,3.128,1.407,4.236c0.743,1.101,1.891,1.996,3.446,2.681c1.553,0.676,3.306,1.022,5.251,1.022
		c1.729,0,3.25-0.26,4.575-0.778c1.324-0.515,2.303-1.225,2.947-2.122c0.649-0.904,0.975-1.887,0.975-2.936
		c0-1.065-0.311-2.001-0.936-2.807c-0.621-0.797-1.646-1.466-3.082-2.016c-0.919-0.35-2.951-0.908-6.099-1.666
		c-3.147-0.755-5.345-1.462-6.606-2.135c-1.635-0.86-2.846-1.929-3.639-3.194c-0.807-1.266-1.207-2.696-1.207-4.265
		c0-1.736,0.495-3.355,1.474-4.854c0.983-1.505,2.409-2.645,4.296-3.427c1.883-0.782,3.977-1.171,6.279-1.171
		c2.535,0,4.775,0.408,6.713,1.226c1.938,0.814,3.428,2.017,4.469,3.612c1.045,1.584,1.604,3.388,1.682,5.396l-4.35,0.334
		c-0.232-2.161-1.019-3.792-2.367-4.893c-1.348-1.108-3.34-1.658-5.969-1.658c-2.743,0-4.744,0.503-5.994,1.505
		c-1.249,1.006-1.882,2.217-1.882,3.636c0,1.226,0.448,2.239,1.333,3.033c0.875,0.79,3.147,1.611,6.83,2.44
		c3.682,0.838,6.209,1.561,7.576,2.186c1.984,0.916,3.459,2.071,4.41,3.478c0.947,1.407,1.418,3.026,1.418,4.857
		c0,1.824-0.518,3.529-1.563,5.141c-1.042,1.611-2.531,2.861-4.484,3.749c-1.953,0.897-4.146,1.345-6.591,1.345
		c-3.093,0-5.682-0.456-7.773-1.36c-2.095-0.895-3.725-2.252-4.916-4.071C1180.064,489.187,1179.443,487.14,1179.38,484.852
		L1179.38,484.852z M1245.487,495.852v-34.238h24.724v4.017h-20.18v10.521h18.887v4.017h-18.887v11.668h20.993v4.017H1245.487
		L1245.487,495.852z M1283.258,495.852v-34.238h6.791l8.096,24.232c0.751,2.256,1.289,3.946,1.635,5.07
		c0.39-1.242,1.003-3.073,1.831-5.49l8.242-23.813h6.063v34.238h-4.351v-28.642l-9.994,28.642h-4.079l-9.884-29.168v29.168H1283.258
		L1283.258,495.852z M1355.728,495.852v-34.238h6.791l8.096,24.232c0.746,2.256,1.289,3.946,1.635,5.07
		c0.389-1.242,1.002-3.073,1.831-5.49l8.241-23.813h6.064v34.238h-4.352v-28.642l-9.994,28.642h-4.078l-9.885-29.168v29.168
		H1355.728L1355.728,495.852z M1397.966,495.852l13.135-34.238h4.979l13.94,34.238h-5.156l-3.962-10.379h-14.414l-3.715,10.379
		H1397.966L1397.966,495.852z M1407.816,481.791h11.668l-3.568-9.49c-1.077-2.885-1.891-5.267-2.457-7.149
		c-0.471,2.232-1.1,4.426-1.89,6.591L1407.816,481.791L1407.816,481.791z M1439.632,495.852v-34.238h4.654l17.963,26.874v-26.874
		h4.351v34.238h-4.654l-17.963-26.873v26.873H1439.632L1439.632,495.852z M1480.374,495.852v-34.238h24.721v4.017h-20.178v10.521
		h18.889v4.017h-18.889v11.668h20.99v4.017H1480.374L1480.374,495.852z M1515.945,486.13l4.064-0.558
		c0.109,2.617,0.598,4.413,1.466,5.384c0.868,0.967,2.079,1.454,3.62,1.454c1.131,0,2.109-0.268,2.932-0.786
		c0.82-0.522,1.395-1.234,1.705-2.122c0.311-0.897,0.464-2.33,0.464-4.292v-23.596h4.543v23.329c0,2.86-0.346,5.073-1.038,6.649
		c-0.691,1.572-1.783,2.767-3.293,3.596c-1.497,0.821-3.258,1.238-5.274,1.238c-3.003,0-5.298-0.865-6.893-2.594
		C1516.645,492.103,1515.882,489.541,1515.945,486.13L1515.945,486.13z M1546.827,479.185c0-5.671,1.533-10.119,4.582-13.33
		c3.054-3.211,6.992-4.814,11.822-4.814c3.163,0,6.008,0.755,8.547,2.264c2.535,1.505,4.473,3.607,5.805,6.311
		c1.328,2.692,2,5.754,2,9.173c0,3.466-0.703,6.57-2.105,9.306c-1.399,2.743-3.385,4.814-5.951,6.218
		c-2.574,1.41-5.348,2.114-8.319,2.114c-3.231,0-6.107-0.786-8.649-2.339c-2.531-1.552-4.461-3.674-5.77-6.366
		C1547.484,485.037,1546.827,482.192,1546.827,479.185L1546.827,479.185z M1551.516,479.269c0,4.118,1.108,7.364,3.321,9.73
		c2.216,2.365,4.998,3.553,8.347,3.553c3.407,0,6.206-1.195,8.414-3.584c2.2-2.394,3.298-5.789,3.298-10.186
		c0-2.783-0.469-5.212-1.411-7.286c-0.939-2.071-2.319-3.679-4.127-4.818c-1.816-1.14-3.847-1.714-6.103-1.714
		c-3.203,0-5.963,1.101-8.273,3.298C1552.671,470.461,1551.516,474.128,1551.516,479.269L1551.516,479.269z M1618.286,495.852
		v-34.238h23.097v4.017h-18.554v10.662h16.066v4.017h-16.066v15.543H1618.286L1618.286,495.852z M1653.13,495.852v-34.238h4.543
		v30.222h16.832v4.017H1653.13L1653.13,495.852z M1684.597,479.185c0-5.671,1.529-10.119,4.582-13.33
		c3.055-3.211,6.988-4.814,11.818-4.814c3.164,0,6.009,0.755,8.551,2.264c2.535,1.505,4.469,3.607,5.801,6.311
		c1.333,2.692,2.001,5.754,2.001,9.173c0,3.466-0.7,6.57-2.103,9.306c-1.402,2.743-3.388,4.814-5.954,6.218
		c-2.574,1.41-5.349,2.114-8.319,2.114c-3.227,0-6.104-0.786-8.647-2.339c-2.535-1.552-4.465-3.674-5.769-6.366
		C1685.249,485.037,1684.597,482.192,1684.597,479.185L1684.597,479.185z M1689.282,479.269c0,4.118,1.107,7.364,3.324,9.73
		c2.213,2.365,4.995,3.553,8.344,3.553c3.41,0,6.205-1.195,8.414-3.584c2.2-2.394,3.301-5.789,3.301-10.186
		c0-2.783-0.472-5.212-1.411-7.286c-0.938-2.071-2.318-3.679-4.13-4.818c-1.816-1.14-3.848-1.714-6.104-1.714
		c-3.203,0-5.962,1.101-8.273,3.298C1690.437,470.461,1689.282,474.128,1689.282,479.269L1689.282,479.269z M1729.34,495.852
		v-34.238h15.174c3.05,0,5.368,0.31,6.956,0.928c1.588,0.609,2.853,1.694,3.801,3.246c0.947,1.557,1.418,3.278,1.418,5.156
		c0,2.433-0.785,4.48-2.357,6.147c-1.572,1.666-3.993,2.72-7.274,3.172c1.202,0.573,2.11,1.147,2.731,1.705
		c1.324,1.211,2.574,2.731,3.745,4.56l5.923,9.325h-5.66l-4.527-7.125c-1.313-2.063-2.404-3.635-3.258-4.728
		c-0.86-1.093-1.627-1.848-2.303-2.287c-0.672-0.429-1.363-0.732-2.063-0.908c-0.512-0.107-1.349-0.161-2.52-0.161h-5.247v15.209
		H1729.34L1729.34,495.852z M1733.879,476.726h9.724c2.074,0,3.682-0.216,4.849-0.648c1.162-0.421,2.047-1.108,2.645-2.056
		c0.605-0.94,0.908-1.961,0.908-3.069c0-1.615-0.582-2.955-1.754-3.997c-1.17-1.045-3.021-1.56-5.549-1.56h-10.823V476.726
		L1733.879,476.726z M1769.937,495.852v-34.238h24.721v4.017h-20.178v10.521h18.889v4.017h-18.889v11.668h20.99v4.017H1769.937
		L1769.937,495.852z M1806.321,484.852l4.256-0.381c0.196,1.721,0.668,3.128,1.41,4.236c0.739,1.101,1.887,1.996,3.443,2.681
		c1.553,0.676,3.305,1.022,5.25,1.022c1.729,0,3.25-0.26,4.574-0.778c1.325-0.515,2.304-1.225,2.948-2.122
		c0.648-0.904,0.975-1.887,0.975-2.936c0-1.065-0.311-2.001-0.936-2.807c-0.62-0.797-1.646-1.466-3.081-2.016
		c-0.916-0.35-2.951-0.908-6.1-1.666c-3.148-0.755-5.345-1.462-6.606-2.135c-1.631-0.86-2.846-1.929-3.64-3.194
		c-0.806-1.266-1.206-2.696-1.206-4.265c0-1.736,0.494-3.355,1.473-4.854c0.983-1.505,2.41-2.645,4.3-3.427
		c1.879-0.782,3.974-1.171,6.276-1.171c2.535,0,4.775,0.408,6.713,1.226c1.938,0.814,3.427,2.017,4.468,3.612
		c1.046,1.584,1.604,3.388,1.683,5.396l-4.352,0.334c-0.23-2.161-1.017-3.792-2.365-4.893c-1.348-1.108-3.34-1.658-5.97-1.658
		c-2.743,0-4.739,0.503-5.993,1.505c-1.25,1.006-1.883,2.217-1.883,3.636c0,1.226,0.448,2.239,1.332,3.033
		c0.877,0.79,3.149,1.611,6.831,2.44c3.683,0.838,6.21,1.561,7.581,2.186c1.98,0.916,3.454,2.071,4.405,3.478
		c0.947,1.407,1.419,3.026,1.419,4.857c0,1.824-0.52,3.529-1.565,5.141c-1.041,1.611-2.531,2.861-4.484,3.749
		c-1.953,0.897-4.146,1.345-6.59,1.345c-3.094,0-5.684-0.456-7.773-1.36c-2.096-0.895-3.727-2.252-4.917-4.071
		C1807.005,489.187,1806.384,487.14,1806.321,484.852L1806.321,484.852z M1854.468,495.852v-30.222h-11.287v-4.017h27.113v4.017
		h-11.287v30.222H1854.468L1854.468,495.852z M1873.739,495.852l13.135-34.238h4.979l13.94,34.238h-5.156l-3.962-10.379h-14.418
		l-3.715,10.379H1873.739L1873.739,495.852z M1883.589,481.791h11.668l-3.572-9.49c-1.077-2.885-1.887-5.267-2.453-7.149
		c-0.471,2.232-1.099,4.426-1.89,6.591L1883.589,481.791L1883.589,481.791z M1915.261,495.852v-34.238h4.543v30.222h16.832v4.017
		H1915.261z"/>
</g>
</svg>
